# xmcd
#
# Track frame offsets: 
#        150
#        41290
#        51872
#        98626
#        118549
#        138104
#
# Disc length: 3815 seconds
#
# Revision: 0
# Processed by: cddbd v1.5.2PL0 Copyright (c) Steve Scherf et al.
# Submitted via: ExactAudioCopy v0.95b3
#
DISCID=420ee506
DTITLE=Jimi Hendrix  - Electric Ladyland and Beyond CD 2  FLAC
DYEAR=1900
DGENRE=
TTITLE0=Voodoo Chile (Outtake)
TTITLE1=Crosstown Traffic (Unfinished version)
TTITLE2=Rainy Day. Dream Away\\Still Raining. Still Dreaming (Outtake)
TTITLE3=Gypsy Eyes (Outtake)
TTITLE4=House Burning Down (Outtake)
TTITLE5=Voodoo Chile (Slight Return) (Outtake)
EXTD=
EXTT0=
EXTT1=
EXTT2=
EXTT3=
EXTT4=
EXTT5=
PLAYORDER=
